<?xml version="1.0" encoding="UTF-8"?>
<svg width="752pt" height="752pt" version="1.1" viewBox="0 0 752 752" xmlns="http://www.w3.org/2000/svg">
 <path d="m543.8 371.64c-30.398-58.605-96.266-96.473-167.8-96.473s-137.4 37.867-167.8 96.473l-2.2578 4.3594 2.2656 4.3633c30.395 58.605 96.262 96.473 167.79 96.473 71.535 0 137.4-37.867 167.8-96.473l2.2578-4.3633zm-167.8 86.254c-62.73 0-120.48-31.984-148.62-81.891 28.148-49.91 85.895-81.895 148.62-81.895s120.48 31.984 148.62 81.891c-28.145 49.906-85.895 81.895-148.62 81.895zm0-133.58c-28.5 0-51.688 23.188-51.688 51.688 0.003906 28.496 23.188 51.684 51.688 51.684s51.688-23.188 51.688-51.688-23.188-51.684-51.688-51.684zm0 84.43c-18.059 0-32.742-14.691-32.742-32.742 0-18.055 14.691-32.742 32.742-32.742 18.055 0 32.742 14.691 32.742 32.742 0.003906 18.051-14.684 32.742-32.742 32.742z"/>
</svg>
